<svg width="20" height="20" viewBox="0 0 20 20" fill="none" xmlns="http://www.w3.org/2000/svg">
<path d="M18.6256 0.466064H1.37564C0.960797 0.466064 0.625641 0.801221 0.625641 1.21606V18.4661C0.625641 18.8809 0.960797 19.2161 1.37564 19.2161H18.6256C19.0405 19.2161 19.3756 18.8809 19.3756 18.4661V1.21606C19.3756 0.801221 19.0405 0.466064 18.6256 0.466064ZM16.46 5.93872H14.9624C13.7881 5.93872 13.5608 6.49653 13.5608 7.31685V9.12388H16.3639L15.9983 11.9528H13.5608V19.2161H10.6381V11.9551H8.19361V9.12388H10.6381V7.03794C10.6381 4.61685 12.117 3.29731 14.278 3.29731C15.3139 3.29731 16.2022 3.37466 16.4624 3.40981V5.93872H16.46Z" fill="#67E8F9"/>
</svg>
