<svg width="470" height="290" viewBox="0 0 470 290" fill="none" xmlns="http://www.w3.org/2000/svg">
<rect width="470" height="290" fill="#1F2937"/>
<g clip-path="url(#clip0_2063_239)">
<path d="M217.506 86.2212C219.325 87.6415 221.794 88.2786 224.025 88.6105L227.928 88.8627C224.303 85.3584 219.776 83.5797 214.837 83.3275C215.634 84.4159 216.444 85.4247 217.492 86.2344H217.506V86.2212Z" fill="#67E8F9"/>
<path d="M253.446 83.2877C249.609 83.7523 245.679 84.9204 242.599 87.4424C242.041 87.907 241.377 88.4512 240.926 89.022C241.019 89.0485 241.112 89.1016 241.218 89.1149C245.254 88.9291 249.689 88.345 252.543 85.0929C252.994 84.5885 253.393 83.9646 253.698 83.354C253.539 83.2479 253.632 83.2611 253.446 83.301V83.2877Z" fill="#67E8F9"/>
<path d="M225.153 109.225C226.972 111.388 230.238 115.317 233.039 115.955C234.725 116.339 236.465 115.901 237.872 114.932C241.404 112.543 244.311 108.813 246.887 105.428C249.117 102.349 251.865 99.1366 252.835 95.3536C253.087 94.358 253.26 93.2165 253.127 92.1811L253.007 91.5838L252.928 91.2254C248.666 93.2563 243.846 95.0748 239.133 93.5749C237.66 93.1103 236.159 92.3935 234.593 92.367C234.075 92.367 233.557 92.4731 233.053 92.5528C231.712 92.7784 230.437 93.4687 229.07 93.7474C225.472 94.4775 222.511 94.066 219.139 92.6192C218.13 92.1811 217.134 91.6103 216.072 91.2652C215.408 94.4509 216.311 97.0261 217.984 99.6676C220.095 103.026 222.591 106.198 225.166 109.211H225.14L225.153 109.225ZM244.444 98.4464C245.559 97.9552 246.674 97.3977 247.75 96.7739C248.599 96.2827 249.449 95.6721 250.352 95.2872L250.538 95.2606L250.631 95.3801C250.126 96.2562 249.423 96.9995 248.626 97.5836C247.205 98.6455 244.67 99.4552 242.93 99.1897H242.758L242.678 99.0702C243.249 99.0039 243.886 98.672 244.431 98.4464H244.444ZM221.754 96.9597C223.215 97.8225 224.755 98.5127 226.321 99.11V99.2959C225.352 99.641 223.825 99.1366 222.869 98.8048C220.931 98.1278 219.391 97.0261 218.488 95.1014C219.643 95.5659 220.692 96.3491 221.754 96.9597Z" fill="#67E8F9"/>
<path d="M189.851 100.544C188.669 96.588 187.023 91.9289 189.054 87.9601C190.103 85.9159 191.829 84.0974 193.489 82.5311C195.401 80.7126 197.458 79.0799 199.569 77.5401C201.641 76.0269 203.898 74.58 205.703 72.7217C208.133 70.2262 210.111 67.0405 212.063 64.1336C212.753 63.138 213.404 62.023 214.187 61.0938C214.399 60.8416 214.599 60.6293 214.904 60.5231L215.103 60.5762C215.05 61.2797 214.545 62.1823 214.253 62.8062C212.793 65.9255 210.961 69.098 208.969 71.8855L206.858 74.6862C206.487 75.1774 206.022 75.6818 205.756 76.2393C206.991 75.2836 208.305 74.5137 209.673 73.7438C212.62 72.058 215.661 70.651 218.701 69.1909L226.906 65.3415C228.088 64.8636 229.282 64.3858 230.517 64.0274C230.915 63.9079 231.3 63.8415 231.699 63.7486C231.778 63.7353 232.084 63.7088 232.15 63.6557C232.203 63.6159 232.402 62.3947 232.429 62.2221C233.159 56.7135 233.226 51.0854 232.787 45.5369C232.681 44.0901 232.615 42.3114 232.057 40.9973C231.725 40.7451 231.393 40.7185 230.995 40.7716H230.915C227.464 41.2362 224.078 42.3114 221.184 44.3821C219.471 45.6166 217.825 47.382 216.563 49.0943C215.223 50.9128 214.121 52.8641 213.019 54.8419L211.16 58.2798C209.859 60.8947 208.704 63.6026 206.938 65.9388C205.783 67.4786 204.548 68.9652 203.114 70.2395C201.548 71.6598 199.769 72.7748 198.122 74.0889C195.772 76.0003 193.622 78.1242 191.537 80.3674C189.625 82.3983 187.554 84.6018 186.439 87.2167C185.669 89.022 185.39 91.013 185.656 92.951C186.107 96.1765 187.767 98.2207 189.891 100.477L189.851 100.517V100.544Z" fill="#67E8F9"/>
<path d="M236.903 63.3637C241.483 65.0362 245.851 66.9476 250.259 69.0316C254.747 71.1421 259.38 73.4119 263.377 76.3853C260.469 73.0536 258.026 69.151 255.928 65.222C255.198 63.8681 254.362 62.4345 254.043 60.8947L254.123 60.7354C254.229 60.7487 254.348 60.7487 254.441 60.7885C254.548 60.8284 254.8 61.1868 254.879 61.2929L256.234 63.2442L259.646 68.3281C260.642 69.828 261.651 71.2881 262.899 72.589C264.943 74.7261 267.386 76.2924 269.723 78.018C271.887 79.6108 273.971 81.3497 275.949 83.1947C278.339 85.5442 280.676 88.2122 280.769 91.8095C280.835 94.5837 280.238 97.9154 278.99 100.384C279.866 99.5614 280.742 98.7251 281.446 97.7296C282.561 96.1367 283.212 93.9465 283.278 91.9687C283.437 88.0131 281.725 85.1858 279.189 82.385C276.879 79.7701 274.356 77.1684 271.674 74.9384C268.926 72.6553 265.886 70.8103 263.562 68.0228C260.881 64.8105 259.367 60.6824 257.495 56.9391C255.225 52.4393 252.052 47.3422 247.962 44.3688C246.236 43.1211 244.364 42.2716 242.36 41.661C241.138 41.276 239.797 40.8911 238.509 40.8513H237.275C236.677 42.5105 236.545 44.329 236.398 46.0679C236.133 49.1474 236.106 52.1871 236.199 55.2799C236.266 57.9347 236.438 60.6558 236.916 63.2973V63.3238L236.903 63.3637Z" fill="#67E8F9"/>
<path d="M202.915 79.7967C200.804 81.0178 198.666 82.2258 196.715 83.6859C195.321 84.7345 193.98 85.9822 192.944 87.4291C191.603 89.3405 191.006 91.6767 191.364 94.0262C191.855 97.2119 193.608 99.6277 195.732 101.884C198.188 104.499 201.069 106.742 203.937 108.866C206.115 110.486 208.624 111.946 210.522 113.897C209.859 112.543 209.155 111.163 208.358 109.902C207.084 107.897 205.544 106.119 204.07 104.274L200.817 100.092C199.556 98.526 197.949 96.9995 197.02 95.1943C196.555 94.2917 196.37 93.0705 196.688 92.0882C197.91 88.1724 208.292 82.9027 211.784 81.0709L216.736 78.5091L223.427 75.4694C226.985 73.9562 230.504 72.5491 234.407 72.5359C236.89 72.589 239.147 73.1332 241.497 73.9031C245.612 75.2437 249.529 77.0888 253.392 79.04L262.036 83.6726C265.102 85.4248 268.754 87.3495 271.183 89.9909C271.953 90.8272 272.59 91.8891 272.537 93.097C272.498 93.9864 272.046 94.9155 271.581 95.6589C270.665 97.1323 269.404 98.3933 268.315 99.7472L264.492 104.751L261.438 108.747C260.403 110.247 259.699 111.919 258.796 113.499L265.395 108.8C266.948 107.619 268.395 106.278 269.842 104.964C273.122 101.99 276.839 98.6986 277.503 93.9598C277.861 91.4776 277.317 89.3007 275.883 87.2964C274.423 85.2787 272.219 83.739 270.201 82.3585C262.354 76.9561 253.658 73.1597 244.869 69.7351L239.518 67.7573C238.257 67.3325 236.969 66.8812 235.628 66.7087C235.044 66.629 234.42 66.6025 233.836 66.6821C229.76 67.3193 225.777 69.0316 221.967 70.5979C215.421 73.2659 209.049 76.226 202.902 79.7834V79.7568L202.915 79.7967Z" fill="#67E8F9"/>
<path d="M295.453 131.936C294.59 129.945 293.382 128.1 292.094 126.335C289 122.087 285.07 118.118 280.755 115.211C278.976 114.003 277.051 113.034 275.126 112.132C272.909 111.083 270.108 109.623 267.598 110.18C265.66 110.618 263.868 111.707 262.115 112.623C260.748 113.34 259.101 114.017 257.999 115.132C256.751 116.366 255.835 117.946 254.375 118.954C254.826 117.136 255.955 115.689 256.698 114.003C257.933 111.203 258.716 108.282 259.486 105.309C259.752 104.287 260.084 103.225 260.256 102.19C257.774 106.066 255.371 110.141 252.569 113.804L239.903 129.149L236.664 133.476C235.947 134.538 235.376 135.932 234.46 136.821C233.252 134.803 232.123 132.772 230.729 130.861C226.388 124.848 221.13 119.578 216.603 113.711C214.904 111.521 213.403 109.225 211.93 106.862C210.854 105.123 209.792 103.331 208.557 101.698C209.38 104.406 209.792 107.207 210.788 109.862L212.965 115.025C213.576 116.366 214.293 117.627 214.678 119.061C213.111 117.893 212.142 116.14 210.668 114.879C209.912 114.229 208.889 113.751 208.013 113.233C206.221 112.172 204.282 110.725 202.277 110.194C201.348 109.968 200.379 109.995 199.463 110.154C196.993 110.579 194.683 111.627 192.466 112.782C186.12 116.14 180.371 121.038 176.242 127.091C174.29 129.945 172.777 133.25 172.073 136.675C176.308 134.392 180.743 133.264 185.403 132.401C188.125 131.91 190.86 131.432 193.608 131.219C200.299 130.715 207.243 131.405 213.669 133.516C214.412 133.768 215.328 134.233 216.098 134.246C212.7 132.202 209.42 129.945 205.716 128.578C203.499 127.768 201.189 127.33 198.852 127.171C197.763 127.105 188.735 127.051 188.549 126.866C188.51 126.826 188.51 126.746 188.483 126.706C188.895 126.361 189.997 126.428 190.541 126.414L196.369 126.374C197.352 126.388 198.334 126.547 199.33 126.414C197.684 126.096 194.962 125.844 193.94 124.29C193.714 123.945 193.648 123.481 193.741 123.069C193.834 122.671 194.099 122.406 194.444 122.207C195.626 121.543 198.427 122.684 199.635 123.109C204.203 124.675 208.504 126.919 212.54 129.587C214.014 130.569 215.514 131.551 216.868 132.68C219.152 134.578 221.236 136.728 223.361 138.865L229.295 144.998L232.588 148.913C233.305 149.803 234.009 150.745 234.792 151.568C236.77 148.515 239.213 145.701 241.629 143.007C245.719 138.467 250.047 134.033 254.986 130.463C258.331 128.047 262.062 125.963 265.846 124.383C267.412 123.733 272.856 121.49 274.29 122.1C274.635 122.26 274.993 122.591 275.126 122.976C275.272 123.361 275.206 123.852 275.06 124.211C274.701 125.021 273.586 125.432 272.803 125.684L269.789 126.481C270.798 126.52 271.82 126.388 272.843 126.348H277.45C278.379 126.348 279.415 126.308 280.304 126.6C279.268 126.919 278.273 126.932 277.184 126.959L273.108 127.025C268.873 127.144 264.877 127.848 261 129.68C259.433 130.423 257.96 131.326 256.486 132.228C255.437 132.865 254.242 133.41 253.246 134.126L259.646 132.361C261.73 131.843 263.894 131.485 266.018 131.246C271.117 130.649 276.361 131.18 281.419 131.989C286.65 132.826 292.2 134.047 296.847 136.781C296.515 135.122 296.103 133.449 295.426 131.896L295.4 131.936H295.453Z" fill="#67E8F9"/>
</g>
<path d="M166.045 193.368L160.85 188.922V163.323L166.045 158.877H189.492L194.687 163.323V171.138L180.974 171.091V166.037H174.188V186.208H178.868L184.297 181.621H179.757V174.461H194.687V193.368H184.344V190.513L180.927 193.368H166.045ZM196.115 193.368L203.743 158.877H226.816L234.397 193.368H220.451L219.655 188.267H210.857L210.061 193.368H196.115ZM212.214 179.796H218.298L216.239 166.786H214.273L212.214 179.796ZM235.841 193.368V158.877H248.758L255.216 175.678L261.675 158.877H274.545V193.368H262.564V175.584L257.79 191.215H252.689L247.822 175.491V193.368H235.841ZM277.809 193.368V158.877H307.902V168.096H291.147V172.402H305.936V179.843H291.147V184.149H307.902V193.368H277.809Z" fill="#67E8F9"/>
<path d="M160.524 249.268V197.531H180.531V234.667H201.24V249.268H160.524ZM211.987 249.268L204.194 242.599V204.2L211.987 197.531H246.595L254.387 204.2V242.599L246.595 249.268H211.987ZM224.201 238.528H234.38V208.271H224.201V238.528ZM265.547 249.268L257.755 242.599V204.2L265.547 197.531H300.717L308.509 204.2V215.923L287.941 215.853V208.271H277.762V238.528H284.782L292.925 231.648H286.116V220.907H308.509V249.268H292.995V244.986L287.871 249.268H265.547Z" fill="#67E8F9"/>
<defs>
<clipPath id="clip0_2063_239">
<rect width="124.8" height="110.836" fill="white" transform="translate(172.1 40.7318)"/>
</clipPath>
</defs>
</svg>
