<svg width="22" height="22" viewBox="0 0 22 22" fill="none" xmlns="http://www.w3.org/2000/svg">
<path d="M10.9999 5.34355C7.95975 5.34355 5.50618 7.79712 5.50618 10.8373C5.50618 13.8775 7.95975 16.331 10.9999 16.331C14.0401 16.331 16.4937 13.8775 16.4937 10.8373C16.4937 7.79712 14.0401 5.34355 10.9999 5.34355ZM10.9999 14.4078C9.03386 14.4078 7.4294 12.8034 7.4294 10.8373C7.4294 8.87122 9.03386 7.26676 10.9999 7.26676C12.966 7.26676 14.5705 8.87122 14.5705 10.8373C14.5705 12.8034 12.966 14.4078 10.9999 14.4078ZM16.7187 3.83819C16.0089 3.83819 15.4356 4.4114 15.4356 5.12122C15.4356 5.83105 16.0089 6.40426 16.7187 6.40426C17.4285 6.40426 18.0017 5.83372 18.0017 5.12122C18.0019 4.95267 17.9689 4.78574 17.9045 4.62998C17.8401 4.47422 17.7456 4.33269 17.6264 4.21351C17.5072 4.09433 17.3657 3.99983 17.2099 3.93542C17.0542 3.87102 16.8872 3.83798 16.7187 3.83819ZM21.7089 10.8373C21.7089 9.35872 21.7223 7.89355 21.6392 6.41765C21.5562 4.70337 21.1651 3.18194 19.9115 1.92837C18.6553 0.672117 17.1365 0.283724 15.4223 0.200689C13.9437 0.117653 12.4785 0.131046 11.0026 0.131046C9.52404 0.131046 8.05886 0.117653 6.58297 0.200689C4.86868 0.283724 3.34725 0.674796 2.09368 1.92837C0.837431 3.18462 0.449038 4.70337 0.366002 6.41765C0.282967 7.89622 0.296359 9.3614 0.296359 10.8373C0.296359 12.3132 0.282967 13.781 0.366002 15.2569C0.449038 16.9712 0.84011 18.4927 2.09368 19.7462C3.34993 21.0025 4.86868 21.3909 6.58297 21.4739C8.06154 21.5569 9.52672 21.5435 11.0026 21.5435C12.4812 21.5435 13.9464 21.5569 15.4223 21.4739C17.1365 21.3909 18.658 20.9998 19.9115 19.7462C21.1678 18.49 21.5562 16.9712 21.6392 15.2569C21.7249 13.781 21.7089 12.3159 21.7089 10.8373ZM19.3517 17.1534C19.1562 17.6409 18.9205 18.0052 18.5428 18.3802C18.1651 18.7578 17.8035 18.9935 17.316 19.1891C15.9071 19.7489 12.5615 19.623 10.9999 19.623C9.43832 19.623 6.09011 19.7489 4.68118 19.1918C4.19368 18.9962 3.8294 18.7605 3.4544 18.3828C3.07672 18.0052 2.841 17.6435 2.64547 17.156C2.08832 15.7444 2.21422 12.3989 2.21422 10.8373C2.21422 9.27569 2.08832 5.92747 2.64547 4.51855C2.841 4.03105 3.07672 3.66676 3.4544 3.29176C3.83207 2.91676 4.19368 2.67837 4.68118 2.48283C6.09011 1.92569 9.43832 2.05158 10.9999 2.05158C12.5615 2.05158 15.9098 1.92569 17.3187 2.48283C17.8062 2.67837 18.1705 2.91408 18.5455 3.29176C18.9231 3.66944 19.1589 4.03105 19.3544 4.51855C19.9115 5.92747 19.7856 9.27569 19.7856 10.8373C19.7856 12.3989 19.9115 15.7444 19.3517 17.1534Z" fill="#67E8F9"/>
</svg>
